<svg xmlns="http://www.w3.org/2000/svg" viewBox="0 0 384 512"><path fill="#fff" d="M145.5 68c5.3-20.7 24.1-36 46.5-36s41.2 15.3 46.5 36c1.8 7.1 8.2 12 15.5 12h18c8.8 0 16 7.2 16 16v32H192 96V96c0-8.8 7.2-16 16-16h18c7.3 0 13.7-4.9 15.5-12zM192 0c-32.8 0-61 19.8-73.3 48H112C91.1 48 73.3 61.4 66.7 80H64C28.7 80 0 108.7 0 144V448c0 35.3 28.7 64 64 64H320c35.3 0 64-28.7 64-64V144c0-35.3-28.7-64-64-64h-2.7c-6.6-18.6-24.4-32-45.3-32h-6.7C253 19.8 224.8 0 192 0zM320 112c17.7 0 32 14.3 32 32V448c0 17.7-14.3 32-32 32H64c-17.7 0-32-14.3-32-32V144c0-17.7 14.3-32 32-32v16c0 17.7 14.3 32 32 32h96 96c17.7 0 32-14.3 32-32V112zM208 80a16 16 0 1 0 -32 0 16 16 0 1 0 32 0zm91.3 171.3c6.2-6.2 6.2-16.4 0-22.6s-16.4-6.2-22.6 0L160 345.4l-52.7-52.7c-6.2-6.2-16.4-6.2-22.6 0s-6.2 16.4 0 22.6l64 64c6.2 6.2 16.4 6.2 22.6 0l128-128z"/></svg>
