<svg xmlns="http://www.w3.org/2000/svg" id="Layer_1" data-name="Layer 1" viewBox="628.57 126.74 606.85 742.52">
  <defs>
    <style>
      .cls-1 {
        fill: #000000;
      }
    </style>
  </defs>
  <g>
    <path class="cls-1" d="m1055.14,562.83v-.02h0c-.02-1.03-.05-2.03-.09-3.04-.02-.41-.04-.82-.06-1.22-.02-.36-.04-.71-.06-1.06-.11-1.76-.25-3.51-.44-5.25-.04-.41-.09-.82-.13-1.23-.02-.11-.03-.22-.04-.33-.12-.99-.25-1.97-.39-2.95-.01-.05-.02-.1-.02-.16-.14-.94-.29-1.87-.45-2.8-.1-.6-.21-1.2-.32-1.8-.09-.51-.19-1.02-.3-1.53-.05-.27-.1-.54-.16-.8-.04-.21-.09-.43-.14-.64,0-.03-.01-.06-.02-.09-.18-.85-.37-1.7-.57-2.54-.05-.23-.11-.46-.16-.69-.49-2.01-1.03-4-1.62-5.97-.27-.89-.54-1.77-.83-2.65-.31-.97-.64-1.93-.98-2.89-.37-1.04-.75-2.07-1.14-3.09-.7-1.81-1.44-3.6-2.23-5.37l-83.09,82.39c-.77.76-1.57,1.49-2.38,2.18-.54.47-1.09.91-1.65,1.34-.57.43-1.13.84-1.71,1.24-1.73,1.2-3.53,2.25-5.38,3.15-.31.15-.62.29-.93.44-8.42,3.87-17.85,4.84-26.78,2.9-.99-.21-1.97-.46-2.95-.75-.98-.28-1.95-.61-2.9-.96-.48-.18-.96-.37-1.43-.57-.79-.33-1.58-.68-2.35-1.07-1.54-.74-3.04-1.6-4.5-2.55-.87-.58-1.72-1.19-2.57-1.83-.83-.64-1.64-1.31-2.45-2.04-.53-.47-1.06-.97-1.57-1.48h-.02c-.39-.38-.76-.77-1.13-1.16-.73-.79-1.43-1.6-2.09-2.42-.34-.41-.66-.83-.97-1.25-.36-.48-.7-.96-1.02-1.45-.26-.38-.51-.76-.75-1.14-.56-.88-1.08-1.78-1.56-2.69-.23-.45-.47-.91-.69-1.37-.22-.46-.44-.92-.64-1.39-.45-1.01-.85-2.04-1.21-3.09-.27-.8-.52-1.6-.75-2.41-1.17-4.23-1.66-8.61-1.47-12.96.25-5.9,1.77-11.77,4.53-17.16.47-.9.96-1.79,1.49-2.66.53-.87,1.1-1.72,1.7-2.56.77-1.07,1.6-2.11,2.48-3.13.22-.25.44-.5.67-.75.46-.5.93-.99,1.41-1.47l84.16-83.46h.03l.69-.69,59.75-59.25h0c-.27-.18-.53-.35-.8-.52-.46-.3-.93-.59-1.4-.89-26.25-16.49-56.44-27.4-88.85-31.01l-21.94,21.59-21.68-22.02h-.02c-33.77,3.09-65.18,14.07-92.42,31.07l.75.65,58.52,50.98-1.27,1.25-.67.66,1.94,1.69-17.2,17.01-5.35,5.29-.09.09h0c-1.67,1.39-3.3,2.81-4.9,4.27-.77.71-1.52,1.42-2.27,2.14-.75.71-1.48,1.44-2.21,2.2-.29.29-.57.58-.85.87-.23.23-.45.46-.65.69-.24.24-.47.49-.7.74-.33.36-.66.72-1,1.08-.39.42-.77.84-1.14,1.27-.64.72-1.27,1.45-1.89,2.19-.76.89-1.49,1.78-2.2,2.69-.22.28-.44.56-.66.84-.26.32-.51.65-.74.97-.39.51-.78,1.01-1.16,1.52-.45.61-.9,1.22-1.33,1.84-.19.27-.38.53-.57.8-.48.69-.96,1.39-1.42,2.09-.21.31-.41.62-.61.93-.36.54-.71,1.08-1.05,1.63-.22.35-.44.7-.66,1.05-.3.47-.58.95-.86,1.42-.24.41-.48.81-.72,1.22-.25.41-.48.81-.7,1.22-.09.16-.18.31-.26.47-.26.44-.5.88-.74,1.33-.25.44-.49.89-.72,1.34-.2.37-.39.74-.58,1.11-.6,1.16-1.18,2.34-1.74,3.53-.18.37-.35.73-.52,1.11-.23.48-.45.97-.66,1.46-.34.75-.67,1.51-.99,2.27-.03.08-.06.16-.1.24-.29.71-.59,1.43-.87,2.16-.17.43-.34.86-.5,1.29-.19.51-.38,1.01-.57,1.52-.33.91-.65,1.82-.97,2.74-.04.13-.08.25-.12.38-.33,1.01-.66,2.01-.96,3.03-.16.51-.32,1.03-.47,1.56-.15.52-.3,1.04-.44,1.57-.57,2.07-1.09,4.16-1.55,6.28h0c-.14.64-.27,1.28-.39,1.92-.17.81-.32,1.64-.47,2.46-.12.65-.23,1.3-.33,1.95-.1.63-.2,1.26-.29,1.9-.09.58-.17,1.16-.24,1.74l-.21,1.68c-.06.56-.12,1.13-.18,1.7-.04.44-.08.87-.12,1.31-.08.83-.14,1.65-.19,2.48-.04.41-.06.82-.08,1.23-.04.5-.06,1-.08,1.51-.02.44-.04.88-.05,1.32-.03.68-.05,1.35-.06,2.03v.04c-.01.71-.02,1.42-.02,2.13,0,66.37,54.28,120.2,121.23,120.2s121.22-53.83,121.22-120.2c0-.7-.01-1.41-.02-2.11Z"/>
    <path class="cls-1" d="m1051.3,531.22c-.01-.08-.03-.15-.06-.23-1.47-4.97-3.27-9.86-5.39-14.65l-.56-1.26-84.07,83.36c-9.4,9.31-22.52,13.29-35.06,11.51-.97-.14-1.94-.31-2.9-.52-.97-.21-1.94-.46-2.89-.73-.73-.21-1.45-.44-2.16-.7-.22-.08-.43-.16-.65-.24-.28-.1-.55-.21-.83-.32-.83-.32-1.65-.68-2.47-1.07-.79-.37-1.58-.78-2.35-1.21-.39-.22-.78-.44-1.16-.67h-.01c-.43-.26-.86-.53-1.29-.81-.09-.06-.19-.13-.28-.19-.75-.52-1.49-1.06-2.23-1.61-.81-.62-1.61-1.28-2.4-2-.52-.45-1.03-.95-1.53-1.44l-.25-.23c-5.5-5.55-9.08-12.29-10.73-19.38,0-.03-.01-.05-.02-.07-1.06-4.6-1.31-9.35-.77-14.02,0-.03,0-.05.01-.07.15-1.3.37-2.59.66-3.87.13-.65.29-1.29.47-1.92.25-.95.54-1.9.88-2.83.11-.31.23-.62.34-.93.15-.39.3-.77.46-1.16.32-.76.66-1.52,1.03-2.27.18-.38.37-.75.57-1.12.16-.29.32-.59.48-.88.32-.59.66-1.17,1.03-1.74.73-1.14,1.51-2.26,2.35-3.35.43-.54.87-1.07,1.32-1.6.22-.26.45-.52.69-.78.23-.26.47-.52.72-.77.07-.08.14-.16.22-.23l.52-.52,84.18-83.46,38.24-37.92,23.03-22.83-.98-.63c-.68-.44-1.36-.87-2.04-1.3-26.91-16.95-57.78-27.75-89.42-31.27l-.45-.05-21.59,21.24-21.02-21.34-.33-.32-.45.04c-32.94,3.01-65.06,13.84-93.07,31.36l.74.64.75.65c27.53-17.12,59.05-27.74,91.32-30.75l22.04,22.38,22.29-21.94c31.07,3.53,61.36,14.12,87.82,30.72.47.29.93.58,1.4.88l-59.16,58.66-.71.7-83.92,83.22c-5.12,5.08-8.68,11.14-10.67,17.58-.01.02-.01.04-.01.05-4.52,14.63-.96,31.2,10.68,42.75l.29.28c.44.42.88.84,1.33,1.23.62.56,1.24,1.09,1.87,1.59.21.17.42.34.64.51.11.08.22.16.33.24.76.56,1.51,1.1,2.29,1.62,16.97,11.1,39.74,8.8,54.15-5.47l82.11-81.41c6.33,14.73,9.54,30.39,9.54,46.59,0,10.21-1.3,20.12-3.74,29.58-13.31,51.5-60.51,89.69-116.54,89.69s-103.24-38.19-116.55-89.69c-2.44-9.46-3.74-19.37-3.74-29.58,0-8.89.99-17.65,2.91-26.14.23-1.06.49-2.12.76-3.17.17-.67.35-1.34.53-2.01.2-.75.42-1.49.64-2.24.19-.67.4-1.34.61-2.01.65-2.07,1.35-4.11,2.11-6.14,1.15-3.04,2.42-6.04,3.81-8.97.46-.98.94-1.94,1.42-2.91,0,0,.01,0,.01-.01.47-.94.97-1.88,1.47-2.81.05-.07.09-.14.12-.21.75-1.38,1.53-2.75,2.34-4.1.84-1.4,1.7-2.78,2.59-4.14.9-1.37,1.82-2.72,2.77-4.05,3.79-5.3,8.03-10.31,12.71-14.99.39-.39.78-.78,1.18-1.17l.06-.06c1.17-1.14,2.36-2.25,3.58-3.34.41-.38.83-.75,1.25-1.11.84-.73,1.69-1.45,2.55-2.16l.09-.09h.01l5.45-5.4h.01s3.7-3.66,3.7-3.66l14.16-14-2.65-2.31-.67.66-.67.67,1.23,1.07-21.87,21.63c-19.26,15.88-32.88,36.9-39.51,60.21h0c-3.01,10.61-4.58,21.68-4.58,32.96,0,66.8,54.8,121.14,122.17,121.14s122.17-54.34,122.17-121.14c0-11.55-1.61-22.84-4.8-33.72Z"/>
  </g>
  <g>
    <path class="cls-1" d="m1055.16,564.93c0,66.38-54.26,120.2-121.23,120.2s-121.23-53.82-121.23-120.2c0-37.17,17.02-70.42,43.75-92.46l.09-.09c21-17.29,47.96-27.67,77.38-27.67,18.83,0,36.66,4.25,52.55,11.86l-84.15,83.46h-.02c-16.43,16.31-16.43,42.75,0,59.06h.04c.51.51,1.04,1.01,1.57,1.48.81.73,1.62,1.4,2.45,2.04.83.65,1.68,1.27,2.57,1.83,16.34,10.68,38.57,8.91,52.96-5.35l83.09-82.39c6.55,14.76,10.17,31.07,10.17,48.23Z"/>
    <path class="cls-1" d="m906.12,603.61c.8.63,1.56,1.16,2.29,1.62-.78-.52-1.53-1.06-2.29-1.62Zm-15.14-46.6s0-.03.01-.05c.01-.07.03-.15.05-.23-4.64,14.7-1.11,31.41,10.6,43.03l.31.28-.29-.28c-11.64-11.55-15.2-28.12-10.68-42.75Zm160.32-25.79c-.01-.08-.03-.15-.06-.23-1.47-4.97-3.27-9.86-5.39-14.65l-.56-1.26-84.07,83.36c-9.4,9.31-22.52,13.29-35.06,11.51-.97-.14-1.94-.32-2.9-.52-.97-.21-1.94-.46-2.89-.73-.73-.21-1.45-.45-2.16-.7-.22-.08-.43-.16-.65-.24-.28-.1-.55-.21-.83-.32-.83-.33-1.66-.69-2.47-1.07-.79-.38-1.58-.78-2.35-1.21-.39-.22-.78-.44-1.16-.67h-.01c-.44-.28-.87-.55-1.3-.83-.09-.06-.18-.11-.27-.17-.71-.46-1.44-.99-2.23-1.61-.81-.62-1.61-1.28-2.4-2-.52-.45-1.03-.95-1.53-1.44l-.29-.25c-5.54-5.6-9.13-12.4-10.75-19.56-1.05-4.56-1.29-9.27-.73-13.89,0-.03,0-.05.01-.07.15-1.3.37-2.59.66-3.87.13-.65.29-1.29.47-1.92.25-.95.54-1.9.88-2.83.1-.31.22-.62.34-.93.15-.39.3-.77.46-1.16.31-.76.66-1.52,1.03-2.27.18-.38.37-.75.57-1.12.14-.3.31-.59.48-.88.32-.59.66-1.17,1.03-1.74.71-1.15,1.5-2.27,2.35-3.35.42-.54.86-1.08,1.32-1.6.22-.26.45-.52.69-.78.23-.26.47-.52.72-.77.07-.08.14-.16.22-.23.08-.08.16-.16.23-.24l.29-.28,84.17-83.47.92-.92-.88-.42-.31-.15c-.19-.09-.38-.18-.58-.27,0-.01-.01-.01-.02-.01-.52-.25-1.04-.49-1.56-.72-15.93-7.27-33.01-10.95-50.8-10.95-24.09,0-47.64,7.1-67.61,20.26-1.5.98-2.97,2-4.42,3.05-2.06,1.49-4.08,3.05-6.05,4.67-19.26,15.88-32.88,36.9-39.51,60.21h0c-3.01,10.61-4.58,21.68-4.58,32.96,0,66.8,54.8,121.14,122.17,121.14s122.17-54.34,122.17-121.14c0-11.55-1.61-22.84-4.8-33.72Zm-117.37,152.99c-56.03,0-103.24-38.19-116.55-89.69-2.44-9.46-3.74-19.37-3.74-29.58,0-8.89.99-17.65,2.91-26.14.24-1.06.49-2.12.76-3.17.17-.67.35-1.34.53-2.01.2-.75.42-1.49.64-2.24.19-.67.4-1.34.61-2.01.65-2.07,1.35-4.11,2.11-6.14,1.15-3.04,2.42-6.04,3.81-8.97.46-.98.94-1.94,1.42-2.91,0,0,.01,0,.01-.01.48-.94.97-1.88,1.47-2.81.05-.07.09-.14.12-.21.75-1.38,1.53-2.75,2.34-4.1.84-1.4,1.7-2.78,2.59-4.14.9-1.37,1.82-2.72,2.77-4.05,3.79-5.3,8.03-10.31,12.71-14.99.39-.39.78-.78,1.18-1.17l.06-.06c1.17-1.14,2.36-2.25,3.58-3.34.41-.38.83-.75,1.25-1.11.87-.77,1.75-1.51,2.64-2.25h.01c21.51-17.7,48.77-27.45,76.77-27.45,17.27,0,33.87,3.53,49.38,10.49.52.23,1.04.47,1.55.71l-83.22,82.52c-5.06,5.02-8.6,11-10.6,17.35-4.64,14.7-1.11,31.41,10.6,43.03l.31.28c.44.42.88.84,1.33,1.23.62.56,1.24,1.09,1.87,1.59.21.16.42.33.63.49.11.09.23.18.34.26.8.63,1.56,1.16,2.29,1.62,16.97,11.1,39.74,8.8,54.15-5.47l82.11-81.41c6.33,14.73,9.54,30.39,9.54,46.59,0,10.21-1.3,20.12-3.74,29.58-13.31,51.5-60.51,89.69-116.54,89.69Zm-27.81-80.6c.8.63,1.56,1.16,2.29,1.62-.78-.52-1.53-1.06-2.29-1.62Z"/>
  </g>
  <g>
    <path class="cls-1" d="m1173.27,385.92c-10.89-14.11-23-27.24-36.17-39.22-7.57-6.9-15.49-13.41-23.74-19.51-24.2-17.92-51.22-32.36-80.26-42.54l-77.21,75.97-21.94,21.59-21.68-22.02h-.02l-34.36-34.88-.76-.78-.28-.28-.48-.49-2.03-2.05,13.43-13.33,3.7-3.67,35.4-36.37h-.01l-191.54,73.09-2.14.81-2.23.85-.04.02-.3.28c-.21.19-.41.36-.62.55h-.01c-8.32,7.34-16.24,15.15-23.67,23.38l-.19.21c-48.23,53.26-77.55,123.66-77.55,200.87,0,166.16,135.83,300.86,303.41,300.86s303.44-134.7,303.44-300.86c0-68.62-23.17-131.86-62.15-182.48Zm-241.29,391.6c-116.49,0-210.9-93.62-210.9-209.12,0-73.62,38.36-138.35,96.36-175.62l1.65,1.44.74.64.75.65c27.53-17.12,59.05-27.74,91.32-30.75l22.04,22.38,22.29-21.94c31.07,3.53,61.36,14.12,87.82,30.72l-57.54,57.07h-.02l-1.76,1.75-.71.7-.71.71-80.99,80.29c-5.83,5.79-9.59,12.86-11.28,20.29-4.64,14.7-1.11,31.41,10.6,43.03l.31.28c.44.42.88.84,1.33,1.23.62.56,1.24,1.09,1.87,1.59.21.17.42.34.64.51.11.08.22.16.33.24.8.63,1.56,1.16,2.29,1.62,16.97,11.1,39.74,8.8,54.15-5.47l82.11-81.41c6.33,14.73,9.54,30.39,9.54,46.59,0,10.21-1.3,20.12-3.74,29.58-14.52,50.25-61.19,87.02-116.54,87.02s-102.03-36.77-116.55-87.02c-2.44-9.46-3.74-19.37-3.74-29.58,0-8.89.99-17.65,2.91-26.14.24-1.06.49-2.12.76-3.17.17-.67.35-1.34.53-2.01.2-.75.42-1.49.64-2.24.19-.67.4-1.34.61-2.01.65-2.07,1.35-4.11,2.11-6.14,1.15-3.04,2.42-6.04,3.81-8.97.46-.98.94-1.94,1.42-2.91,0,0,.01,0,.01-.01.48-.94.97-1.88,1.47-2.81.05-.07.09-.14.12-.21.75-1.38,1.53-2.75,2.34-4.1.84-1.4,1.7-2.78,2.59-4.14.9-1.37,1.82-2.72,2.77-4.05,3.79-5.3,8.03-10.31,12.71-14.99.39-.39.78-.78,1.18-1.17l.06-.06c1.17-1.14,2.36-2.25,3.58-3.34.41-.38.83-.75,1.25-1.11.84-.73,1.69-1.45,2.55-2.16l.09-.09h.01l5.45-5.4h.01s3.7-3.66,3.7-3.66l14.16-14-2.65-2.31-.67.66-.67.67-19.94,19.72-.09.1c-19.45,16.03-33.76,38-40.12,63.09h0c-3.01,10.61-4.58,21.68-4.58,32.96,0,66.8,54.8,121.14,122.17,121.14s122.17-54.34,122.17-121.14c0-11.55-1.61-22.84-4.8-33.72-.01-.08-.03-.15-.06-.23-1.61-6.17-3.71-12.14-6.25-17.88l-83.1,82.39c-14.4,14.26-36.62,16.04-52.96,5.36-.87-.58-1.72-1.2-2.57-1.84-.83-.63-1.64-1.31-2.45-2.04-.53-.46-1.06-.97-1.57-1.48h-.02c-4.87-4.84-8.3-10.58-10.29-16.67,0-.03-.01-.05-.02-.07-1.06-4.6-1.31-9.35-.77-14.02,0-.03,0-.05.01-.07.15-1.3.37-2.59.66-3.87.13-.65.29-1.29.47-1.92.25-.95.54-1.9.88-2.83.11-.31.23-.62.34-.93.15-.39.3-.77.46-1.16.32-.76.66-1.52,1.03-2.27.18-.38.37-.75.57-1.12.16-.29.32-.59.48-.88.32-.59.66-1.17,1.03-1.74.73-1.14,1.51-2.26,2.35-3.35.43-.54.87-1.07,1.32-1.6.22-.26.45-.52.69-.78.23-.26.47-.52.72-.77.07-.08.14-.16.22-.23l.52-.52,84.18-83.46h.01s38.23-37.92,38.23-37.92l23.03-22.83-.98-.63c-.68-.44-1.36-.87-2.04-1.3l1.53-1.52c23.75,15.35,44.21,35.31,60.04,58.6,22.67,33.34,35.9,73.52,35.9,116.76,0,115.5-94.41,209.12-210.91,209.12Zm119.32-246.3c-.01-.08-.03-.15-.06-.23-1.61-6.17-3.71-12.14-6.25-17.88l-83.1,82.39c-14.4,14.26-36.62,16.04-52.96,5.36-.87-.58-1.72-1.2-2.57-1.84-.83-.63-1.64-1.31-2.45-2.04-.53-.46-1.06-.97-1.57-1.48h-.02c-4.87-4.84-8.3-10.58-10.29-16.67,0-.03-.01-.05-.02-.07-.01-.05-.03-.09-.04-.13-1.13-3.54-1.77-7.19-1.93-10.86,0-.06-.01-.13-.01-.2v-.04c-.14-3.52.18-7.06.95-10.52,0-.01,0-.03.01-.05.01-.07.03-.15.05-.23-4.64,14.7-1.11,31.41,10.6,43.03l.31.28c.44.42.88.84,1.33,1.23.62.56,1.24,1.09,1.87,1.59.21.17.42.34.64.51.11.08.22.16.33.24.8.63,1.56,1.16,2.29,1.62,16.97,11.1,39.74,8.8,54.15-5.47l82.11-81.41c6.33,14.73,9.54,30.39,9.54,46.59,0,10.21-1.3,20.12-3.74,29.58,2.92-10.08,4.54-20.71,4.66-31.69v-.02h0c.02-.49.02-.98.02-1.47,0-10.4-1.33-20.49-3.85-30.12Zm-173.47-83.48l-.67.66-.67.67-19.94,19.72-.09.1c-19.45,16.03-33.76,38-40.12,63.09h0c-2.38,9.4-3.64,19.24-3.64,29.36,0,.48,0,.95.02,1.43v.04c.12,10.99,1.74,21.62,4.66,31.71-2.44-9.46-3.74-19.37-3.74-29.58,0-8.89.99-17.65,2.91-26.14.24-1.06.49-2.12.76-3.17.17-.67.35-1.34.53-2.01.2-.75.42-1.49.64-2.24.19-.67.4-1.34.61-2.01.65-2.07,1.35-4.11,2.11-6.14,1.15-3.04,2.42-6.04,3.81-8.97.46-.98.94-1.94,1.42-2.91,0,0,.01,0,.01-.01.48-.94.97-1.88,1.47-2.81.05-.07.09-.14.12-.21.75-1.38,1.53-2.75,2.34-4.1.84-1.4,1.7-2.78,2.59-4.14.9-1.37,1.82-2.72,2.77-4.05,3.79-5.3,8.03-10.31,12.71-14.99.39-.39.78-.78,1.18-1.17l.06-.06c1.17-1.14,2.36-2.25,3.58-3.34.41-.38.83-.75,1.25-1.11.84-.73,1.69-1.45,2.55-2.16l.09-.09h.01l5.45-5.4h.01s3.7-3.66,3.7-3.66l14.16-14-2.65-2.31Zm173.47,83.48c-.01-.08-.03-.15-.06-.23-1.61-6.17-3.71-12.14-6.25-17.88l-83.1,82.39c-14.4,14.26-36.62,16.04-52.96,5.36-.87-.58-1.72-1.2-2.57-1.84-.83-.63-1.64-1.31-2.45-2.04-.53-.46-1.06-.97-1.57-1.48h-.02c-4.87-4.84-8.3-10.58-10.29-16.67,0-.03-.01-.05-.02-.07-1.06-4.6-1.31-9.35-.77-14.02,0-.03,0-.05.01-.07.15-1.3.37-2.59.66-3.87.13-.65.29-1.29.47-1.92.25-.95.54-1.9.88-2.83.11-.31.23-.62.34-.93.15-.39.3-.77.46-1.16.32-.76.66-1.52,1.03-2.27.18-.38.37-.75.57-1.12.16-.29.32-.59.48-.88.32-.59.66-1.17,1.03-1.74.73-1.14,1.51-2.26,2.35-3.35.43-.54.87-1.07,1.32-1.6.22-.26.45-.52.69-.78.23-.26.47-.52.72-.77.07-.08.14-.16.22-.23l.52-.52,84.18-83.46h.01s38.23-37.92,38.23-37.92l23.03-22.83-.98-.63c-.68-.44-1.36-.87-2.04-1.3l-.68.67-.69.69-57.54,57.07h-.02l-1.76,1.75-.71.7-.71.71-80.99,80.29c-5.83,5.79-9.59,12.86-11.28,20.29-4.64,14.7-1.11,31.41,10.6,43.03l.31.28c.44.42.88.84,1.33,1.23.62.56,1.24,1.09,1.87,1.59.21.17.42.34.64.51.11.08.22.16.33.24.8.63,1.56,1.16,2.29,1.62,16.97,11.1,39.74,8.8,54.15-5.47l82.11-81.41c6.33,14.73,9.54,30.39,9.54,46.59,0,10.21-1.3,20.12-3.74,29.58-14.52,50.25-61.19,87.02-116.54,87.02s-102.03-36.77-116.55-87.02c-2.44-9.46-3.74-19.37-3.74-29.58,0-8.89.99-17.65,2.91-26.14.24-1.06.49-2.12.76-3.17.17-.67.35-1.34.53-2.01.2-.75.42-1.49.64-2.24.19-.67.4-1.34.61-2.01.65-2.07,1.35-4.11,2.11-6.14,1.15-3.04,2.42-6.04,3.81-8.97.46-.98.94-1.94,1.42-2.91,0,0,.01,0,.01-.01.48-.94.97-1.88,1.47-2.81.05-.07.09-.14.12-.21.75-1.38,1.53-2.75,2.34-4.1.84-1.4,1.7-2.78,2.59-4.14.9-1.37,1.82-2.72,2.77-4.05,3.79-5.3,8.03-10.31,12.71-14.99.39-.39.78-.78,1.18-1.17l.06-.06c1.17-1.14,2.36-2.25,3.58-3.34.41-.38.83-.75,1.25-1.11.84-.73,1.69-1.45,2.55-2.16l.09-.09h.01l5.45-5.4h.01s3.7-3.66,3.7-3.66l14.16-14-2.65-2.31-.67.66-.67.67-19.94,19.72-.09.1c-19.45,16.03-33.76,38-40.12,63.09h0c-3.01,10.61-4.58,21.68-4.58,32.96,0,66.8,54.8,121.14,122.17,121.14s122.17-54.34,122.17-121.14c0-11.55-1.61-22.84-4.8-33.72Zm0,0c-.01-.08-.03-.15-.06-.23-1.61-6.17-3.71-12.14-6.25-17.88l-83.1,82.39c-14.4,14.26-36.62,16.04-52.96,5.36-.87-.58-1.72-1.2-2.57-1.84-.83-.63-1.64-1.31-2.45-2.04-.53-.46-1.06-.97-1.57-1.48h-.02c-4.87-4.84-8.3-10.58-10.29-16.67,0-.03-.01-.05-.02-.07-.01-.05-.03-.09-.04-.13-1.13-3.54-1.77-7.19-1.93-10.86,0-.06-.01-.13-.01-.2v-.04c-.14-3.52.18-7.06.95-10.52,0-.01,0-.03.01-.05.01-.07.03-.15.05-.23-4.64,14.7-1.11,31.41,10.6,43.03l.31.28c.44.42.88.84,1.33,1.23.62.56,1.24,1.09,1.87,1.59.21.17.42.34.64.51.11.08.22.16.33.24.8.63,1.56,1.16,2.29,1.62,16.97,11.1,39.74,8.8,54.15-5.47l82.11-81.41c6.33,14.73,9.54,30.39,9.54,46.59,0,10.21-1.3,20.12-3.74,29.58,2.92-10.08,4.54-20.71,4.66-31.69v-.02h0c.02-.49.02-.98.02-1.47,0-10.4-1.33-20.49-3.85-30.12Zm-174.14-82.82l-.67.67-19.94,19.72-.09.1c-19.45,16.03-33.76,38-40.12,63.09h0c-2.38,9.4-3.64,19.24-3.64,29.36,0,.48,0,.95.02,1.43v.04c.12,10.99,1.74,21.62,4.66,31.71-2.44-9.46-3.74-19.37-3.74-29.58,0-8.89.99-17.65,2.91-26.14.24-1.06.49-2.12.76-3.17.17-.67.35-1.34.53-2.01.2-.75.42-1.49.64-2.24.19-.67.4-1.34.61-2.01.65-2.07,1.35-4.11,2.11-6.14,1.15-3.04,2.42-6.04,3.81-8.97.46-.98.94-1.94,1.42-2.91,0,0,.01,0,.01-.01.48-.94.97-1.88,1.47-2.81.05-.07.09-.14.12-.21.75-1.38,1.53-2.75,2.34-4.1.84-1.4,1.7-2.78,2.59-4.14.9-1.37,1.82-2.72,2.77-4.05,3.79-5.3,8.03-10.31,12.71-14.99.39-.39.78-.78,1.18-1.17l.06-.06c1.17-1.14,2.36-2.25,3.58-3.34.41-.38.83-.75,1.25-1.11.84-.73,1.69-1.45,2.55-2.16l.09-.09h.01l5.45-5.4h.01s3.7-3.66,3.7-3.66l14.16-14-2.65-2.31-.67.66Z"/>
    <g>
      <polygon class="cls-1" points="1010.96 183.12 946.07 249.28 926.88 268.33 926.87 268.33 890.87 304.07 891.47 304.7 887.77 308.37 727.66 348.96 724.06 349.88 723.97 349.9 724.15 349.69 729.99 343.94 730 343.93 748.46 325.76 748.76 325.48 749.64 324.61 951.81 126.74 1010.96 183.12"/>
      <path class="cls-1" d="m877.14,324.53l-.28-.28-.48-.49-165.77,42.02,17.06-16.81,7.66-7.54-2.14.81-2.23.85-6.9,6.8-17.05,16.8-2.31,2.52,173.2-43.9-.76-.78Z"/>
    </g>
  </g>
  <polygon class="cls-1" points="1047.61 397.3 1025.41 419.32 987.18 457.25 987.17 457.24 987.16 457.23 986.52 456.58 985.85 455.92 986.32 455.47 1045.45 396.8 1046.14 396.12 1046.28 395.98 1046.95 396.63 1046.95 396.64 1047.61 397.3"/>
</svg>
